<?xml version="1.0" encoding="UTF-8" standalone="no"?>
<svg
   xmlns:dc="http://purl.org/dc/elements/1.1/"
   xmlns:cc="http://creativecommons.org/ns#"
   xmlns:rdf="http://www.w3.org/1999/02/22-rdf-syntax-ns#"
   xmlns:svg="http://www.w3.org/2000/svg"
   xmlns="http://www.w3.org/2000/svg"
   xmlns:sodipodi="http://sodipodi.sourceforge.net/DTD/sodipodi-0.dtd"
   xmlns:inkscape="http://www.inkscape.org/namespaces/inkscape"
   enable-background="new 0 0 2447.6 2452.5"
   viewBox="0 0 2447.6 2452.5"
   version="1.1"
   id="svg12"
   sodipodi:docname="slack-new-logo_1.svg"
   inkscape:version="0.92.4 (f8dce91, 2019-08-02)">
  <metadata
     id="metadata18">
    <rdf:RDF>
      <cc:Work
         rdf:about="">
        <dc:format>image/svg+xml</dc:format>
        <dc:type
           rdf:resource="http://purl.org/dc/dcmitype/StillImage" />
        <dc:title></dc:title>
      </cc:Work>
    </rdf:RDF>
  </metadata>
  <defs
     id="defs16" />
  <sodipodi:namedview
     pagecolor="#ffffff"
     bordercolor="#666666"
     borderopacity="1"
     objecttolerance="10"
     gridtolerance="10"
     guidetolerance="10"
     inkscape:pageopacity="0"
     inkscape:pageshadow="2"
     inkscape:window-width="1853"
     inkscape:window-height="1025"
     id="namedview14"
     showgrid="false"
     inkscape:zoom="0.096228338"
     inkscape:cx="1223.8"
     inkscape:cy="1226.25"
     inkscape:window-x="67"
     inkscape:window-y="27"
     inkscape:window-maximized="1"
     inkscape:current-layer="svg12" />
  <path
     style="clip-rule:evenodd;fill:#36c5f0;fill-rule:evenodd"
     d="M 897.4,654 H 244.8 C 109.5,654.1 -0.1,763.9 0,899.2 c -0.2,135.3 109.4,245.1 244.7,245.3 h 652.7 c 135.3,-0.1 244.9,-109.9 244.8,-245.2 C 1142.3,763.9 1032.7,654.1 897.4,654 Z"
     id="path2" />
  <path
     style="clip-rule:evenodd;fill:#2eb67d;fill-rule:evenodd"
     d="m 1794.9,899.2 v -654 C 1795,110 1685.5,0.2 1550.2,0 1414.9,0.1 1305.3,109.9 1305.4,245.2 v 654 c -0.2,135.3 109.4,245.1 244.7,245.3 135.3,-0.1 244.9,-109.9 244.8,-245.3 z"
     id="path4" />
  <path
     style="clip-rule:evenodd;fill:#ecb22e;fill-rule:evenodd"
     d="m 1550.1,1798.4 h 652.7 c 135.3,-0.1 244.9,-109.9 244.8,-245.2 0.2,-135.3 -109.4,-245.1 -244.7,-245.3 h -652.7 c -135.3,0.1 -244.9,109.9 -244.8,245.2 -0.1,135.4 109.4,245.2 244.7,245.3 z"
     id="path6" />
  <path
     style="clip-rule:evenodd;fill:#e01e5a;fill-rule:evenodd"
     d="m 652.7,1553.2 v 654 c -0.2,135.3 109.4,245.1 244.7,245.3 135.3,-0.1 244.9,-109.9 244.8,-245.2 v -653.9 c 0.2,-135.3 -109.4,-245.1 -244.7,-245.3 -135.4,0 -244.9,109.8 -244.8,245.1 0,0 0,0.1 0,0"
     id="path8" />
</svg>
