<?xml version="1.0" encoding="UTF-8" standalone="no"?>
<svg
   xmlns:dc="http://purl.org/dc/elements/1.1/"
   xmlns:cc="http://creativecommons.org/ns#"
   xmlns:rdf="http://www.w3.org/1999/02/22-rdf-syntax-ns#"
   xmlns:svg="http://www.w3.org/2000/svg"
   xmlns="http://www.w3.org/2000/svg"
   xmlns:sodipodi="http://sodipodi.sourceforge.net/DTD/sodipodi-0.dtd"
   xmlns:inkscape="http://www.inkscape.org/namespaces/inkscape"
   enable-background="new 0 0 2447.6 2452.5"
   viewBox="0 0 2447.6 2452.5"
   version="1.1"
   id="svg933"
   sodipodi:docname="slack-new-logo_all.svg"
   inkscape:version="0.92.4 (f8dce91, 2019-08-02)">
  <metadata
     id="metadata939">
    <rdf:RDF>
      <cc:Work
         rdf:about="">
        <dc:format>image/svg+xml</dc:format>
        <dc:type
           rdf:resource="http://purl.org/dc/dcmitype/StillImage" />
        <dc:title></dc:title>
      </cc:Work>
    </rdf:RDF>
  </metadata>
  <defs
     id="defs937" />
  <sodipodi:namedview
     pagecolor="#ffffff"
     bordercolor="#666666"
     borderopacity="1"
     objecttolerance="10"
     gridtolerance="10"
     guidetolerance="10"
     inkscape:pageopacity="0"
     inkscape:pageshadow="2"
     inkscape:window-width="1853"
     inkscape:window-height="1025"
     id="namedview935"
     showgrid="false"
     inkscape:zoom="0.096228338"
     inkscape:cx="1223.8"
     inkscape:cy="1226.25"
     inkscape:window-x="67"
     inkscape:window-y="27"
     inkscape:window-maximized="1"
     inkscape:current-layer="svg933" />
  <path
     style="clip-rule:evenodd;fill:#36c5f0;fill-rule:evenodd"
     d="M 897.4,0 C 762.1,0.1 652.6,109.9 652.7,245.2 652.6,380.5 762.2,490.3 897.5,490.4 h 244.8 V 245.3 C 1142.4,110 1032.8,0.2 897.4,0 c 0.1,0 0.1,0 0,0"
     id="path1493" />
  <path
     style="clip-rule:evenodd;fill:#2eb67d;fill-rule:evenodd"
     d="M 2447.6,899.2 C 2447.7,763.9 2338.1,654.1 2202.8,654 2067.5,654.1 1957.9,763.9 1958,899.2 v 245.3 h 244.8 c 135.3,-0.1 244.9,-109.9 244.8,-245.3 z"
     id="path1505" />
  <path
     style="clip-rule:evenodd;fill:#ecb22e;fill-rule:evenodd"
     d="m 1550.1,2452.5 c 135.3,-0.1 244.9,-109.9 244.8,-245.2 0.1,-135.3 -109.5,-245.1 -244.8,-245.2 h -244.8 v 245.2 c -0.1,135.2 109.5,245 244.8,245.2 z"
     id="path1501" />
  <path
     style="clip-rule:evenodd;fill:#e01e5a;fill-rule:evenodd"
     d="m 0,1553.2 c -0.1,135.3 109.5,245.1 244.8,245.2 135.3,-0.1 244.9,-109.9 244.8,-245.2 V 1308 H 244.8 C 109.5,1308.1 -0.1,1417.9 0,1553.2 Z"
     id="path1497" />
</svg>
